<svg width="143" height="33" viewBox="0 0 143 33" fill="none" xmlns="http://www.w3.org/2000/svg">
<path d="M39.054 13C40.398 13 41.462 12.552 42.232 11.656C43.002 10.746 43.394 9.598 43.394 8.198C43.394 6.784 43.002 5.636 42.218 4.726C41.448 3.816 40.384 3.354 39.054 3.354H35.316V13H39.054ZM36.618 4.572H39.054C40.02 4.572 40.776 4.908 41.294 5.594C41.826 6.266 42.092 7.134 42.092 8.198C42.092 9.248 41.826 10.116 41.294 10.788C40.776 11.446 40.02 11.782 39.054 11.782H36.618V4.572ZM44.7609 9.71C44.7609 10.732 45.0969 11.558 45.7549 12.188C46.4129 12.818 47.2249 13.14 48.1769 13.14C49.1289 13.14 49.9409 12.818 50.5989 12.188C51.2709 11.544 51.6069 10.718 51.6069 9.71C51.6069 8.702 51.2709 7.89 50.6129 7.26C49.9549 6.63 49.1429 6.322 48.1769 6.322C47.2109 6.322 46.3989 6.63 45.7409 7.26C45.0829 7.89 44.7609 8.702 44.7609 9.71ZM50.3329 9.71C50.3329 10.368 50.1229 10.9 49.7029 11.306C49.2969 11.712 48.7789 11.908 48.1769 11.908C47.5749 11.908 47.0569 11.712 46.6369 11.306C46.2309 10.9 46.0209 10.368 46.0209 9.71C46.0209 9.066 46.2309 8.548 46.6369 8.156C47.0569 7.764 47.5749 7.568 48.1769 7.568C48.7789 7.568 49.2969 7.764 49.7029 8.156C50.1229 8.548 50.3329 9.066 50.3329 9.71ZM62.8812 6.462H61.5232L59.8852 11.04L58.2472 6.462H57.0152L55.3772 11.04L53.7392 6.462H52.3812L54.8732 13H55.9092L57.6312 8.198L59.4092 13H60.4592L62.8812 6.462ZM65.5138 9.472C65.5138 8.184 66.3398 7.568 67.3618 7.568C68.2578 7.568 68.8038 8.226 68.8038 9.304V13H70.0778V9.22C70.0778 7.372 69.1818 6.322 67.5578 6.322C66.7598 6.322 65.8918 6.714 65.5138 7.442V6.462H64.2398V13H65.5138V9.472ZM72.1285 13H73.4025V2.906H72.1285V13ZM75.0988 9.71C75.0988 10.732 75.4348 11.558 76.0928 12.188C76.7508 12.818 77.5628 13.14 78.5148 13.14C79.4668 13.14 80.2788 12.818 80.9368 12.188C81.6088 11.544 81.9448 10.718 81.9448 9.71C81.9448 8.702 81.6088 7.89 80.9508 7.26C80.2928 6.63 79.4808 6.322 78.5148 6.322C77.5488 6.322 76.7368 6.63 76.0788 7.26C75.4208 7.89 75.0988 8.702 75.0988 9.71ZM80.6708 9.71C80.6708 10.368 80.4608 10.9 80.0408 11.306C79.6348 11.712 79.1168 11.908 78.5148 11.908C77.9128 11.908 77.3948 11.712 76.9748 11.306C76.5688 10.9 76.3588 10.368 76.3588 9.71C76.3588 9.066 76.5688 8.548 76.9748 8.156C77.3948 7.764 77.9128 7.568 78.5148 7.568C79.1168 7.568 79.6348 7.764 80.0408 8.156C80.4608 8.548 80.6708 9.066 80.6708 9.71ZM90.0802 13V6.462H88.8202V7.442C88.4142 6.728 87.4762 6.322 86.5242 6.322C85.6002 6.322 84.8162 6.63 84.1722 7.26C83.5282 7.89 83.2062 8.702 83.2062 9.724C83.2062 10.732 83.5282 11.558 84.1722 12.188C84.8162 12.818 85.6002 13.14 86.5242 13.14C87.4762 13.14 88.3862 12.72 88.8202 11.992V13H90.0802ZM88.8062 9.71C88.8062 10.382 88.5962 10.914 88.1762 11.306C87.7562 11.698 87.2382 11.894 86.6362 11.894C86.0342 11.894 85.5302 11.684 85.1242 11.278C84.7182 10.872 84.5082 10.34 84.5082 9.71C84.5082 9.08 84.7042 8.562 85.1102 8.17C85.5162 7.764 86.0342 7.568 86.6362 7.568C87.2102 7.568 87.7142 7.764 88.1482 8.142C88.5822 8.52 88.8062 9.052 88.8062 9.71ZM98.6524 13V2.906H97.3784V7.442C96.9444 6.714 96.0624 6.322 95.0684 6.322C94.1444 6.322 93.3604 6.63 92.7304 7.26C92.1004 7.89 91.7784 8.702 91.7784 9.724C91.7784 10.732 92.1004 11.558 92.7304 12.188C93.3744 12.818 94.1584 13.14 95.0824 13.14C96.0344 13.14 96.9444 12.72 97.3784 11.992V13H98.6524ZM95.1944 7.568C95.7684 7.568 96.2724 7.764 96.7064 8.142C97.1404 8.52 97.3644 9.052 97.3644 9.71C97.3644 10.368 97.1544 10.9 96.7204 11.306C96.3004 11.698 95.7964 11.894 95.1944 11.894C94.5924 11.894 94.0884 11.684 93.6824 11.278C93.2764 10.872 93.0804 10.34 93.0804 9.71C93.0804 9.08 93.2764 8.562 93.6824 8.17C94.0884 7.764 94.5924 7.568 95.1944 7.568ZM103.987 9.71C103.987 10.732 104.323 11.558 104.981 12.188C105.639 12.818 106.451 13.14 107.403 13.14C108.355 13.14 109.167 12.818 109.825 12.188C110.497 11.544 110.833 10.718 110.833 9.71C110.833 8.702 110.497 7.89 109.839 7.26C109.181 6.63 108.369 6.322 107.403 6.322C106.437 6.322 105.625 6.63 104.967 7.26C104.309 7.89 103.987 8.702 103.987 9.71ZM109.559 9.71C109.559 10.368 109.349 10.9 108.929 11.306C108.523 11.712 108.005 11.908 107.403 11.908C106.801 11.908 106.283 11.712 105.863 11.306C105.457 10.9 105.247 10.368 105.247 9.71C105.247 9.066 105.457 8.548 105.863 8.156C106.283 7.764 106.801 7.568 107.403 7.568C108.005 7.568 108.523 7.764 108.929 8.156C109.349 8.548 109.559 9.066 109.559 9.71ZM113.803 9.472C113.803 8.184 114.629 7.568 115.651 7.568C116.547 7.568 117.093 8.226 117.093 9.304V13H118.367V9.22C118.367 7.372 117.471 6.322 115.847 6.322C115.049 6.322 114.181 6.714 113.803 7.442V6.462H112.529V13H113.803V9.472ZM125.654 3.998H124.38V6.462H123.204V7.54H124.38V13H125.654V7.54H127.04V6.462H125.654V3.998ZM129.758 9.472C129.758 8.828 129.954 8.352 130.36 8.044C130.766 7.722 131.228 7.568 131.746 7.568C132.656 7.568 133.286 8.24 133.286 9.304V13H134.56V9.22C134.574 7.386 133.552 6.322 131.914 6.322C131.508 6.322 131.088 6.42 130.654 6.616C130.234 6.798 129.94 7.078 129.758 7.442V2.906H128.484V13H129.758V9.472ZM137.445 9.22C137.599 8.142 138.411 7.47 139.517 7.47C140.581 7.47 141.351 8.142 141.505 9.22H137.445ZM142.765 9.71C142.765 8.688 142.457 7.876 141.841 7.26C141.239 6.63 140.455 6.322 139.517 6.322C138.565 6.322 137.767 6.63 137.123 7.26C136.493 7.876 136.171 8.688 136.171 9.71C136.171 10.732 136.493 11.558 137.123 12.188C137.767 12.818 138.565 13.14 139.517 13.14C140.819 13.14 141.981 12.524 142.527 11.404L141.995 11.208C141.743 11.11 141.561 11.026 141.435 10.984C141.085 11.614 140.357 11.992 139.559 11.992C138.439 11.992 137.599 11.292 137.445 10.214H142.751C142.765 10.116 142.765 9.948 142.765 9.71Z" fill="white"/>
<path d="M23.3203 21.6261C22.3326 21.3248 21.4453 20.6217 20.6752 19.5167C19.9051 18.4118 19.5201 17.1562 19.5201 15.7835C19.5201 14.5112 19.8884 13.356 20.6083 12.3181C21.01 11.7321 21.6462 11.0792 22.5167 10.3426C21.9475 9.63951 21.3616 9.07031 20.7757 8.66853C19.7377 7.94866 18.5491 7.58036 17.2098 7.58036C16.3895 7.58036 15.4185 7.78125 14.3136 8.14955C13.2087 8.5346 12.4051 8.71875 11.9196 8.71875C11.5346 8.71875 10.7645 8.55134 9.60938 8.21652C8.4375 7.8817 7.46652 7.71428 6.64621 7.71428C4.72098 7.71428 3.14732 8.51786 1.89174 10.125C0.636161 11.7489 0 13.8248 0 16.3862C0 19.1317 0.837054 21.9275 2.46094 24.8069C4.1183 27.6864 5.77567 29.1429 7.5 29.1429C8.05246 29.1429 8.78906 28.9587 9.70982 28.5737C10.6138 28.2054 11.4174 28.0212 12.0871 28.0212C12.7734 28.0212 13.6272 28.1886 14.615 28.5569C15.6194 28.9085 16.3895 29.0926 16.9587 29.0926C18.3817 29.0926 19.8214 28.0045 21.2612 25.8114C22.2321 24.3549 22.9018 22.9487 23.3203 21.6261ZM17.0257 1.98884C17.0257 1.87165 17.0089 1.7712 17.0089 1.65402C16.9922 1.55357 16.9587 1.43638 16.9252 1.28571C14.9833 1.73772 13.577 2.55803 12.74 3.76339C11.9029 4.96875 11.4676 6.40848 11.4342 8.06585C12.221 7.99888 12.7902 7.89844 13.1752 7.78125C13.7779 7.58036 14.3806 7.17857 14.9833 6.57589C15.6864 5.87277 16.2054 5.10268 16.5402 4.26562C16.8583 3.44531 17.0257 2.67522 17.0257 1.98884Z" fill="white"/>
<path d="M44.256 29L40.096 17.976H38.256L34.096 29H35.904L36.96 26.248H41.408L42.464 29H44.256ZM40.832 24.728H37.536L39.184 20.104L40.832 24.728ZM45.5114 21.528V32.632H47.1594V27.928C47.6074 28.712 48.5834 29.16 49.6554 29.16C50.6954 29.16 51.5594 28.808 52.2794 28.088C52.9994 27.368 53.3674 26.44 53.3674 25.272C53.3674 24.12 52.9994 23.176 52.2794 22.456C51.5594 21.736 50.6954 21.368 49.6554 21.368C48.6314 21.368 47.6074 21.848 47.1594 22.632V21.528H45.5114ZM47.1754 25.304C47.1754 24.6 47.3994 24.04 47.8314 23.608C48.2794 23.176 48.8234 22.968 49.4474 22.968C50.0714 22.968 50.5994 23.192 51.0314 23.624C51.4634 24.056 51.6874 24.616 51.6874 25.304C51.6874 26.648 50.7274 27.576 49.4474 27.576C48.8394 27.576 48.3114 27.368 47.8474 26.968C47.3994 26.552 47.1754 25.992 47.1754 25.304ZM55.2145 21.528V32.632H56.8625V27.928C57.3105 28.712 58.2865 29.16 59.3585 29.16C60.3985 29.16 61.2625 28.808 61.9825 28.088C62.7025 27.368 63.0705 26.44 63.0705 25.272C63.0705 24.12 62.7025 23.176 61.9825 22.456C61.2625 21.736 60.3985 21.368 59.3585 21.368C58.3345 21.368 57.3105 21.848 56.8625 22.632V21.528H55.2145ZM56.8785 25.304C56.8785 24.6 57.1025 24.04 57.5345 23.608C57.9825 23.176 58.5265 22.968 59.1505 22.968C59.7745 22.968 60.3025 23.192 60.7345 23.624C61.1665 24.056 61.3905 24.616 61.3905 25.304C61.3905 26.648 60.4305 27.576 59.1505 27.576C58.5425 27.576 58.0145 27.368 57.5505 26.968C57.1025 26.552 56.8785 25.992 56.8785 25.304ZM66.5656 29V17.464H64.9176V29H66.5656ZM75.9748 25.24C75.9748 24.072 75.6228 23.144 74.9188 22.44C74.2148 21.72 73.3188 21.368 72.2308 21.368C71.1428 21.368 70.2308 21.72 69.4948 22.44C68.7588 23.144 68.3908 24.072 68.3908 25.24C68.3908 26.408 68.7588 27.352 69.4948 28.072C70.2308 28.792 71.1428 29.16 72.2308 29.16C73.7188 29.16 75.0468 28.504 75.6868 27.24L74.3428 26.648C73.9588 27.336 73.1588 27.72 72.3108 27.72C71.0948 27.72 70.1668 27 70.0228 25.848H75.9588C75.9748 25.736 75.9748 25.544 75.9748 25.24ZM70.0228 24.648C70.1668 23.512 71.0628 22.808 72.2308 22.808C73.3668 22.808 74.2148 23.496 74.3588 24.648H70.0228ZM81.425 25.8C81.425 26.712 81.793 27.512 82.529 28.168C83.265 28.824 84.193 29.16 85.313 29.16C86.353 29.16 87.217 28.888 87.905 28.344C88.593 27.784 88.993 27.08 89.073 26.2C89.249 24.584 88.273 23.352 86.097 22.776L84.689 22.408C83.713 22.152 83.217 21.672 83.217 20.968C83.217 20.072 84.081 19.448 85.121 19.448C86.273 19.448 87.041 20.104 87.041 21.112H88.737C88.737 20.12 88.401 19.336 87.713 18.744C87.041 18.152 86.193 17.848 85.153 17.848C84.161 17.848 83.313 18.152 82.593 18.744C81.873 19.336 81.521 20.088 81.521 21C81.521 22.488 82.433 23.464 84.257 23.96L85.649 24.312C86.865 24.6 87.441 25.192 87.393 26.104C87.265 26.952 86.545 27.608 85.313 27.608C84.689 27.608 84.161 27.432 83.761 27.064C83.361 26.696 83.137 26.264 83.121 25.8H81.425ZM91.4628 18.696V21.528H90.1188V22.888H91.4628V29H93.1108V22.888H94.6948V21.528H93.1108V18.696H91.4628ZM99.5444 27.56C98.9204 27.56 98.3764 27.352 97.9444 26.92C97.5124 26.488 97.2884 25.928 97.2884 25.24C97.2884 24.568 97.5124 24.024 97.9444 23.608C98.3764 23.192 98.9204 22.984 99.5444 22.984C100.824 22.984 101.816 23.896 101.816 25.24C101.816 25.928 101.592 26.488 101.16 26.92C100.728 27.352 100.184 27.56 99.5444 27.56ZM99.5444 21.368C98.4564 21.368 97.5284 21.72 96.7764 22.44C96.0244 23.16 95.6564 24.088 95.6564 25.24C95.6564 26.392 96.0244 27.336 96.7764 28.072C97.5284 28.792 98.4564 29.16 99.5444 29.16C100.632 29.16 101.56 28.792 102.312 28.072C103.08 27.336 103.464 26.392 103.464 25.24C103.464 24.088 103.08 23.16 102.328 22.44C101.576 21.72 100.648 21.368 99.5444 21.368ZM106.941 26.312C106.941 24.216 107.597 22.92 108.941 22.92C109.341 22.92 109.709 23 110.045 23.176L110.317 21.656C110.029 21.464 109.581 21.368 108.989 21.368C107.981 21.368 107.309 21.992 106.941 23.24V21.528H105.293V29H106.941V26.312ZM118.631 25.24C118.631 24.072 118.279 23.144 117.575 22.44C116.871 21.72 115.975 21.368 114.887 21.368C113.799 21.368 112.887 21.72 112.151 22.44C111.415 23.144 111.047 24.072 111.047 25.24C111.047 26.408 111.415 27.352 112.151 28.072C112.887 28.792 113.799 29.16 114.887 29.16C116.375 29.16 117.703 28.504 118.343 27.24L116.999 26.648C116.615 27.336 115.815 27.72 114.967 27.72C113.751 27.72 112.823 27 112.679 25.848H118.615C118.631 25.736 118.631 25.544 118.631 25.24ZM112.679 24.648C112.823 23.512 113.719 22.808 114.887 22.808C116.023 22.808 116.871 23.496 117.015 24.648H112.679Z" fill="white"/>
</svg>
