<svg width="24" height="24" viewBox="0 0 24 24" fill="none" xmlns="http://www.w3.org/2000/svg">
<path d="M9 22H15C20 22 22 20 22 15V9C22 4 20 2 15 2H9C4 2 2 4 2 9V15C2 20 4 22 9 22Z" stroke="#45166A" stroke-width="1.5" stroke-linecap="round" stroke-linejoin="round"/>
<path d="M12 8.10023V17.6602M18.38 15.2702V7.58023C18.38 6.81023 17.76 6.25023 17 6.31023H16.96C15.62 6.42023 13.59 7.11023 12.45 7.82023L12.34 7.89023C12.16 8.00023 11.85 8.00023 11.66 7.89023L11.5 7.79023C10.37 7.08023 8.34 6.41023 7 6.30023C6.24 6.24023 5.62 6.81023 5.62 7.57023V15.2702C5.62 15.8802 6.12 16.4602 6.73 16.5302L6.91 16.5602C8.29 16.7402 10.43 17.4502 11.65 18.1202L11.68 18.1302C11.85 18.2302 12.13 18.2302 12.29 18.1302C13.51 17.4502 15.66 16.7502 17.05 16.5602L17.26 16.5302C17.88 16.4602 18.38 15.8902 18.38 15.2702Z" stroke="#45166A" stroke-width="1.5" stroke-linecap="round" stroke-linejoin="round"/>
</svg>
