<svg width="36" height="43" viewBox="0 0 36 43" fill="none" xmlns="http://www.w3.org/2000/svg">
<path d="M28 19.9V13.1C28 11.6 27.36 11 25.77 11H21.73C20.14 11 19.5 11.6 19.5 13.1V19.9C19.5 21.4 20.14 22 21.73 22H25.77C27.36 22 28 21.4 28 19.9ZM28 28.9V27.1C28 25.6 27.36 25 25.77 25H21.73C20.14 25 19.5 25.6 19.5 27.1V28.9C19.5 30.4 20.14 31 21.73 31H25.77C27.36 31 28 30.4 28 28.9ZM16.5 22.1V28.9C16.5 30.4 15.86 31 14.27 31H10.23C8.64 31 8 30.4 8 28.9V22.1C8 20.6 8.64 20 10.23 20H14.27C15.86 20 16.5 20.6 16.5 22.1ZM16.5 13.1V14.9C16.5 16.4 15.86 17 14.27 17H10.23C8.64 17 8 16.4 8 14.9V13.1C8 11.6 8.64 11 10.23 11H14.27C15.86 11 16.5 11.6 16.5 13.1Z" stroke="#45166A" stroke-width="1.5" stroke-linecap="round" stroke-linejoin="round"/>
</svg>
