<svg width="55" height="41" viewBox="0 0 55 41" fill="none" xmlns="http://www.w3.org/2000/svg">
<path fill-rule="evenodd" clip-rule="evenodd" d="M8.99169 19.2333C7.86127 19.3405 7 20.2622 7 21.3982V38.8244C7 40.0354 7.9797 41 9.18548 41H39.8145C41.0311 41 42 40.0247 42 38.8244V21.3982C42 20.2622 41.1172 19.3405 40.0083 19.2333H31.9123L31.3633 16.3932C31.2018 15.5894 30.5128 15 29.6946 15H19.3162C18.5088 15 17.8197 15.5787 17.6475 16.3932L17.0877 19.2333H8.99169ZM24.4946 22.202C25.5604 22.202 26.594 22.4163 27.5414 22.8021C28.5211 23.2094 29.3823 23.7881 30.1252 24.5169C30.8573 25.2457 31.4494 26.1138 31.8477 27.089C32.2353 28.0322 32.4506 29.061 32.4506 30.122C32.4506 31.183 32.2461 32.2119 31.8477 33.155C31.4386 34.1195 30.8573 34.9876 30.1252 35.7271C29.3931 36.4559 28.5211 37.0453 27.5414 37.4419C26.594 37.8277 25.5604 38.042 24.4946 38.042C23.4288 38.042 22.3953 37.8384 21.4479 37.4419C20.4682 37.0346 19.6069 36.4559 18.864 35.7271C18.132 34.9984 17.5398 34.1303 17.1415 33.155C16.7539 32.2119 16.5386 31.1937 16.5386 30.122C16.5386 29.0503 16.7432 28.0322 17.1415 27.089C17.5506 26.1245 18.132 25.2564 18.864 24.5169C19.5961 23.7881 20.4682 23.2094 21.4479 22.8021C22.3953 22.4163 23.4073 22.202 24.4946 22.202ZM11.8662 20.9909C12.6952 20.9909 13.3627 21.6661 13.3627 22.4806C13.3627 23.2951 12.6844 23.9703 11.8662 23.9703C11.048 23.9703 10.3697 23.2951 10.3697 22.4806C10.3697 21.6661 11.048 20.9909 11.8662 20.9909ZM28.2842 26.3388C27.789 25.8458 27.1861 25.4493 26.5401 25.1707C25.905 24.9134 25.2159 24.7634 24.4839 24.7634C23.7518 24.7634 23.0627 24.9134 22.4276 25.1707C21.7816 25.4386 21.1787 25.8458 20.6835 26.3388C20.1883 26.8318 19.7791 27.432 19.51 28.075C19.2516 28.6966 19.1009 29.3932 19.1009 30.122C19.1009 30.8508 19.2516 31.5367 19.51 32.169C19.7791 32.812 20.1775 33.4122 20.6835 33.9052C21.1787 34.3982 21.7816 34.8054 22.4276 35.0734C23.0627 35.3306 23.7518 35.4806 24.4839 35.4806C25.2159 35.4806 25.905 35.3306 26.5401 35.0734C27.1861 34.8054 27.789 34.3982 28.2842 33.9052C28.7795 33.4122 29.1886 32.812 29.4577 32.169C29.7161 31.5474 29.8668 30.8508 29.8668 30.122C29.8668 29.3932 29.7161 28.7073 29.4577 28.075C29.1886 27.432 28.7902 26.8318 28.2842 26.3388Z" fill="#252525"/>
</svg>
