<svg width="32" height="32" viewBox="0 0 32 32" fill="none" xmlns="http://www.w3.org/2000/svg">
<g id="Iconsax/Linear/category">
<path id="Vector" d="M16 9.49019V24.4902M11.75 12.4902H9.5M12.5 15.4902H9.5M26 20.7402V8.67019C26 7.47019 25.02 6.58019 23.83 6.68019H23.77C21.67 6.86019 18.48 7.93019 16.7 9.05019L16.53 9.16019C16.24 9.34019 15.76 9.34019 15.47 9.16019L15.22 9.01019C13.44 7.90019 10.26 6.84019 8.16 6.67019C6.97 6.57019 6 7.47019 6 8.66019V20.7402C6 21.7002 6.78 22.6002 7.74 22.7202L8.03 22.7602C10.2 23.0502 13.55 24.1502 15.47 25.2002L15.51 25.2202C15.78 25.3702 16.21 25.3702 16.47 25.2202C18.39 24.1602 21.75 23.0502 23.93 22.7602L24.26 22.7202C25.22 22.6002 26 21.7002 26 20.7402Z" stroke="#45166A" stroke-width="1.5" stroke-linecap="round" stroke-linejoin="round"/>
</g>
</svg>
