<svg width="32" height="32" viewBox="0 0 32 32" fill="none" xmlns="http://www.w3.org/2000/svg">
<path d="M16 9.03012V25.0848M26 21.0711V8.15685C26 6.86375 25.0282 5.92331 23.837 6.02407H23.7743C21.674 6.2088 18.4922 7.36756 16.7053 8.5599L16.5329 8.67745C16.2508 8.86218 15.7649 8.86218 15.4671 8.67745L15.2163 8.50952C13.4451 7.31718 10.2633 6.19201 8.16301 6.00728C6.97179 5.90652 6 6.86375 6 8.14006V21.0711C6 22.0955 6.7837 23.0695 7.73981 23.1871L8.02194 23.2375C10.185 23.5397 13.5392 24.7321 15.4514 25.8573L15.4984 25.874C15.7649 26.042 16.2038 26.042 16.4545 25.874C18.3668 24.7321 21.7367 23.5565 23.9154 23.2375L24.2445 23.1871C25.2163 23.0695 26 22.1123 26 21.0711Z" stroke="#45166A" stroke-width="1.5" stroke-linecap="round" stroke-linejoin="round"/>
</svg>
