<svg width="122" height="33" viewBox="0 0 122 33" fill="none" xmlns="http://www.w3.org/2000/svg">
<path d="M41.82 5.21229C40.91 4.35829 39.818 3.93829 38.558 3.93829C37.2 3.93829 36.038 4.41429 35.1 5.38029C34.162 6.34629 33.686 7.50829 33.686 8.89429C33.686 10.2663 34.162 11.4283 35.1 12.3943C36.038 13.3603 37.2 13.8363 38.558 13.8363C41.4 13.8363 43.122 12.1563 43.122 8.85229H38.894V9.98629H41.638C41.596 10.7843 41.302 11.4143 40.728 11.8903C40.154 12.3523 39.44 12.5903 38.558 12.5903C37.564 12.5903 36.71 12.2263 36.024 11.5123C35.338 10.7983 34.988 9.91629 34.988 8.89429C34.988 7.87229 35.338 6.99029 36.024 6.27629C36.71 5.54829 37.564 5.18429 38.558 5.18429C39.44 5.18429 40.21 5.47829 40.882 6.08029L41.82 5.21229ZM45.486 9.91629C45.64 8.83829 46.452 8.16629 47.558 8.16629C48.622 8.16629 49.392 8.83829 49.546 9.91629H45.486ZM50.806 10.4063C50.806 9.38429 50.498 8.57229 49.882 7.95629C49.28 7.32629 48.496 7.01829 47.558 7.01829C46.606 7.01829 45.808 7.32629 45.164 7.95629C44.534 8.57229 44.212 9.38429 44.212 10.4063C44.212 11.4283 44.534 12.2543 45.164 12.8843C45.808 13.5143 46.606 13.8363 47.558 13.8363C48.86 13.8363 50.022 13.2203 50.568 12.1003L50.036 11.9043C49.784 11.8063 49.602 11.7223 49.476 11.6803C49.126 12.3103 48.398 12.6883 47.6 12.6883C46.48 12.6883 45.64 11.9883 45.486 10.9103H50.792C50.806 10.8123 50.806 10.6443 50.806 10.4063ZM54.1893 4.69429H52.9153V7.15829H51.7393V8.23629H52.9153V13.6963H54.1893V8.23629H55.5753V7.15829H54.1893V4.69429ZM61.656 13.6963V7.15829H60.396V13.6963H61.656ZM60.396 5.33829C60.746 5.66029 61.306 5.66029 61.642 5.33829C61.992 5.01629 61.992 4.48429 61.642 4.16229C61.306 3.84029 60.746 3.84029 60.396 4.16229C60.06 4.48429 60.06 5.01629 60.396 5.33829ZM65.0607 10.1683C65.0607 8.88029 65.8867 8.26429 66.9087 8.26429C67.8047 8.26429 68.3507 8.92229 68.3507 10.0003V13.6963H69.6247V9.91629C69.6247 8.06829 68.7287 7.01829 67.1047 7.01829C66.3067 7.01829 65.4387 7.41029 65.0607 8.13829V7.15829H63.7867V13.6963H65.0607V10.1683ZM74.878 10.4063C74.878 11.4283 75.214 12.2543 75.872 12.8843C76.53 13.5143 77.342 13.8363 78.294 13.8363C79.246 13.8363 80.058 13.5143 80.716 12.8843C81.388 12.2403 81.724 11.4143 81.724 10.4063C81.724 9.39829 81.388 8.58629 80.73 7.95629C80.072 7.32629 79.26 7.01829 78.294 7.01829C77.328 7.01829 76.516 7.32629 75.858 7.95629C75.2 8.58629 74.878 9.39829 74.878 10.4063ZM80.45 10.4063C80.45 11.0643 80.24 11.5963 79.82 12.0023C79.414 12.4083 78.896 12.6043 78.294 12.6043C77.692 12.6043 77.174 12.4083 76.754 12.0023C76.348 11.5963 76.138 11.0643 76.138 10.4063C76.138 9.76229 76.348 9.24429 76.754 8.85229C77.174 8.46029 77.692 8.26429 78.294 8.26429C78.896 8.26429 79.414 8.46029 79.82 8.85229C80.24 9.24429 80.45 9.76229 80.45 10.4063ZM84.6935 10.1683C84.6935 8.88029 85.5195 8.26429 86.5415 8.26429C87.4375 8.26429 87.9835 8.92229 87.9835 10.0003V13.6963H89.2575V9.91629C89.2575 8.06829 88.3615 7.01829 86.7375 7.01829C85.9395 7.01829 85.0715 7.41029 84.6935 8.13829V7.15829H83.4195V13.6963H84.6935V10.1683Z" fill="white"/>
<path d="M12.6363 15.9773L14.9692 13.6445L4.0825 7.38463L12.6363 15.9773ZM1.82741 6.87918L11.8198 16.8327L1.82741 26.7862C1.25715 26.5011 0.972024 26.0475 0.972024 25.4254V8.24002C0.972024 7.61792 1.25715 7.16431 1.82741 6.87918ZM18.3518 15.6663C18.7147 15.9255 18.8961 16.3143 18.8961 16.8327C18.9221 17.3511 18.7536 17.7399 18.3907 17.9991L16.0578 19.3211L13.5306 16.8327L16.0578 14.3054L18.3518 15.6663ZM4.0825 26.2808L12.6363 17.6881L14.9692 20.0209L4.0825 26.2808Z" fill="white"/>
<path d="M43.176 18.9806C42.136 17.9406 40.856 17.4286 39.336 17.4286C37.768 17.4286 36.44 17.9886 35.368 19.0926C34.296 20.1966 33.752 21.5246 33.752 23.0926C33.752 24.6606 34.296 25.9886 35.368 27.0926C36.456 28.1966 37.784 28.7406 39.336 28.7406C42.6 28.7406 44.6 26.8046 44.6 22.9806H39.56V24.4366H42.648C42.6 25.2526 42.264 25.9086 41.64 26.4046C41.016 26.9006 40.248 27.1406 39.336 27.1406C38.248 27.1406 37.32 26.7406 36.568 25.9566C35.816 25.1726 35.448 24.2126 35.448 23.0926C35.448 21.9726 35.816 21.0126 36.568 20.2286C37.32 19.4446 38.248 19.0446 39.336 19.0446C40.344 19.0446 41.208 19.3966 41.928 20.0846L43.176 18.9806ZM49.6381 27.1406C49.0141 27.1406 48.4701 26.9326 48.0381 26.5006C47.6061 26.0686 47.3821 25.5086 47.3821 24.8206C47.3821 24.1486 47.6061 23.6046 48.0381 23.1886C48.4701 22.7726 49.0141 22.5646 49.6381 22.5646C50.9181 22.5646 51.9101 23.4766 51.9101 24.8206C51.9101 25.5086 51.6861 26.0686 51.2541 26.5006C50.8221 26.9326 50.2781 27.1406 49.6381 27.1406ZM49.6381 20.9486C48.5501 20.9486 47.6221 21.3006 46.8701 22.0206C46.1181 22.7406 45.7501 23.6686 45.7501 24.8206C45.7501 25.9726 46.1181 26.9166 46.8701 27.6526C47.6221 28.3726 48.5501 28.7406 49.6381 28.7406C50.7261 28.7406 51.6541 28.3726 52.4061 27.6526C53.1741 26.9166 53.5581 25.9726 53.5581 24.8206C53.5581 23.6686 53.1741 22.7406 52.4221 22.0206C51.6701 21.3006 50.7421 20.9486 49.6381 20.9486ZM58.7944 27.1406C58.1704 27.1406 57.6264 26.9326 57.1944 26.5006C56.7624 26.0686 56.5384 25.5086 56.5384 24.8206C56.5384 24.1486 56.7624 23.6046 57.1944 23.1886C57.6264 22.7726 58.1704 22.5646 58.7944 22.5646C60.0744 22.5646 61.0664 23.4766 61.0664 24.8206C61.0664 25.5086 60.8424 26.0686 60.4104 26.5006C59.9784 26.9326 59.4344 27.1406 58.7944 27.1406ZM58.7944 20.9486C57.7064 20.9486 56.7784 21.3006 56.0264 22.0206C55.2744 22.7406 54.9064 23.6686 54.9064 24.8206C54.9064 25.9726 55.2744 26.9166 56.0264 27.6526C56.7784 28.3726 57.7064 28.7406 58.7944 28.7406C59.8824 28.7406 60.8104 28.3726 61.5624 27.6526C62.3304 26.9166 62.7144 25.9726 62.7144 24.8206C62.7144 23.6686 62.3304 22.7406 61.5784 22.0206C60.8264 21.3006 59.8984 20.9486 58.7944 20.9486ZM70.3506 24.8526C70.3506 25.5406 70.1106 26.1006 69.6466 26.5326C69.1826 26.9486 68.6386 27.1566 68.0466 27.1566C67.4066 27.1566 66.8626 26.9486 66.4306 26.5166C65.9986 26.0846 65.7746 25.5406 65.7746 24.8526C65.7746 24.1806 65.9986 23.6366 66.4306 23.2046C66.8626 22.7726 67.4066 22.5486 68.0466 22.5486C69.3426 22.5486 70.3506 23.4286 70.3506 24.8526ZM65.1026 29.8606L64.4306 30.2126C65.1346 31.5406 66.4306 32.3086 67.8866 32.3086C70.6226 32.3086 71.9986 30.6926 71.9986 27.4766V21.1086H70.3826V22.2126C69.9346 21.4286 68.8946 20.9486 67.8546 20.9486C66.8146 20.9486 65.9186 21.3166 65.1826 22.0366C64.4466 22.7566 64.0786 23.7006 64.0786 24.8686C64.0786 26.0206 64.4466 26.9486 65.1826 27.6686C65.9186 28.3886 66.8146 28.7406 67.8546 28.7406C68.8946 28.7406 69.9506 28.2606 70.3826 27.4446V27.8286C70.3826 29.7966 69.5506 30.7726 67.8866 30.7726C67.0546 30.7726 66.1746 30.2926 65.7906 29.5246L65.1026 29.8606ZM75.9563 28.5806V17.0446H74.3083V28.5806H75.9563ZM85.3654 24.8206C85.3654 23.6526 85.0134 22.7246 84.3094 22.0206C83.6054 21.3006 82.7094 20.9486 81.6214 20.9486C80.5334 20.9486 79.6214 21.3006 78.8854 22.0206C78.1494 22.7246 77.7814 23.6526 77.7814 24.8206C77.7814 25.9886 78.1494 26.9326 78.8854 27.6526C79.6214 28.3726 80.5334 28.7406 81.6214 28.7406C83.1094 28.7406 84.4374 28.0846 85.0774 26.8206L83.7334 26.2286C83.3494 26.9166 82.5494 27.3006 81.7014 27.3006C80.4854 27.3006 79.5574 26.5806 79.4134 25.4286H85.3494C85.3654 25.3166 85.3654 25.1246 85.3654 24.8206ZM79.4134 24.2286C79.5574 23.0926 80.4534 22.3886 81.6214 22.3886C82.7574 22.3886 83.6054 23.0766 83.7494 24.2286H79.4134ZM95.8556 19.1246C98.0956 19.0286 98.1436 23.0926 95.7916 22.9806H93.1676V19.1246H95.8556ZM93.1676 28.5806V24.5326H95.8876C97.0076 24.5326 97.8396 24.1966 98.3996 23.5246C98.9596 22.8526 99.2476 22.0366 99.2476 21.0606C99.2476 20.0846 98.9596 19.2686 98.3996 18.5806C97.8396 17.8926 96.9916 17.5566 95.8876 17.5566H91.4556V28.5806H93.1676ZM102.534 28.5806V17.0446H100.886V28.5806H102.534ZM112.296 28.5806V21.1086H110.664V22.1646C110.168 21.3806 109.128 20.9486 108.152 20.9486C107.112 20.9486 106.216 21.3166 105.464 22.0366C104.728 22.7566 104.36 23.6846 104.36 24.8366C104.36 25.9886 104.728 26.9326 105.464 27.6526C106.216 28.3726 107.112 28.7406 108.152 28.7406C109.128 28.7406 110.2 28.2766 110.664 27.5086V28.5806H112.296ZM110.648 24.8206C110.648 26.2286 109.624 27.1406 108.344 27.1406C107.704 27.1406 107.16 26.9166 106.712 26.4846C106.28 26.0526 106.056 25.4926 106.056 24.8206C106.056 24.1486 106.28 23.6046 106.712 23.1886C107.16 22.7566 107.704 22.5486 108.344 22.5486C108.952 22.5486 109.48 22.7566 109.944 23.1726C110.408 23.5726 110.648 24.1326 110.648 24.8206ZM119.597 21.1086L117.501 26.2286L115.421 21.1086H113.661L116.621 28.2286L115.005 32.2286H116.733L121.357 21.1086H119.597Z" fill="white"/>
</svg>
