<svg width="30" height="30" viewBox="0 0 30 30" fill="none" xmlns="http://www.w3.org/2000/svg">
<rect width="30" height="30" rx="15" fill="#9A1CAD"/>
<path d="M21.8399 9.87324L19.6495 11.8958C18.2659 10.5268 16.6495 9.84507 14.8036 9.84507C13.1994 9.84507 11.855 10.3408 10.7674 11.3352C9.6858 12.3239 9.14199 13.5352 9.14199 14.9549C9.14199 16.3746 9.70091 17.6648 10.8278 18.6901C11.9547 19.7127 13.3444 20.2197 14.9909 20.2197C16.0665 20.2197 16.9698 20.0085 17.71 19.5887C18.4441 19.169 19.0393 18.507 19.4894 17.6085H14.7613V14.893H22.9758L23 15.5324C23 16.8676 22.6254 18.1296 21.8882 19.3239C21.145 20.5155 20.1843 21.4282 19.0121 22.0592C17.8278 22.6845 16.4471 23 14.858 23C13.1662 23 11.6526 22.6563 10.3202 21.9662C8.98791 21.2789 7.93958 20.3014 7.16012 19.0338C6.38671 17.7577 6 16.3887 6 14.9183C6 12.9042 6.71299 11.1493 8.14501 9.66479C9.8429 7.88451 12.0514 7 14.7704 7C16.1964 7 17.5227 7.24507 18.7643 7.73239C19.8097 8.1493 20.8308 8.86197 21.8369 9.87042L21.8399 9.87324Z" fill="white"/>
</svg>
