<svg width="207" height="51" viewBox="0 0 207 51" fill="none" xmlns="http://www.w3.org/2000/svg">
<path fill-rule="evenodd" clip-rule="evenodd" d="M151.198 21.8549L154.297 23.6774V27.3173V30.9624V34.6023V38.2421L157.396 40.0647L160.495 41.8872L163.594 43.7098L166.693 45.5323L169.792 47.3549L172.891 49.1774L175.99 51L179.089 49.1774L182.187 47.3549L185.286 45.5323L188.385 43.7098L191.484 41.8872L194.583 40.0647L197.682 38.2421V34.6023V30.9624V27.3173V23.6774L200.781 21.8549V28.4465C200.525 28.6041 200.352 28.9035 200.352 29.2186C200.352 29.5338 200.498 29.7859 200.718 29.9487L200.614 30.2691L199.991 32.223H201.237H202.482L201.86 30.2691L201.755 29.9487C201.98 29.7859 202.121 29.5653 202.121 29.2186C202.121 28.872 201.87 28.4886 201.525 28.3625V21.4137L176.749 6.84377L177.497 6.40257L202.299 20.9725L203.901 20.0323L207 18.2098L203.901 16.3872L200.802 14.5647L197.703 12.7421L194.599 10.9248L191.5 9.10226L188.401 7.27971L185.302 5.46241L182.203 3.63985L179.104 1.8173L176 -3.8147e-06L172.901 1.82255L169.802 3.6451L166.698 5.46241L163.599 7.28496L160.5 9.10751L157.401 10.9248L154.302 12.7474L151.203 14.5699L148.104 16.3925L145 18.2098L148.099 20.0323L151.198 21.8549ZM172.901 16.3925L176 14.5699L179.099 16.3925L182.198 18.215L179.099 20.0376L176 21.8601L172.901 23.6774V27.3226L176 29.1451L179.099 27.3226L182.198 25.5L185.297 23.6774L188.396 21.8549L191.495 20.0323L193.625 18.777L194.594 18.2098L191.961 16.6656L191.495 16.3925L188.396 14.5699L185.297 12.7474L182.203 10.9248L179.104 9.10226L176.005 7.27971L172.901 9.10751L169.802 10.9248L166.703 12.7474L163.604 14.5699L160.505 16.3925L157.406 18.215L160.505 20.0376V23.6774V27.3173V30.9624V32.8322V34.6023L163.604 36.4248L166.703 38.2474L169.802 40.0699L172.901 41.8925L176 43.715L179.099 41.8925L182.198 40.0699L185.297 38.2474L188.396 36.4248L191.495 34.6023V30.9624V27.3173L188.396 29.1399L185.297 30.9624L182.198 32.785L179.099 34.6075L176 36.4301L172.901 34.6023L169.802 32.7797L166.703 30.9572V20.0323L169.802 18.2098L172.901 16.3925Z" fill="white"/>
<path d="M15.4524 29.198C14.6164 29.198 13.7804 29.1687 12.9444 29.11C12.123 29.066 11.265 28.9487 10.3704 28.758V13.974C11.0744 13.842 11.8444 13.7467 12.6804 13.688C13.5164 13.6147 14.2937 13.578 15.0124 13.578C15.9804 13.578 16.8677 13.6513 17.6744 13.798C18.4957 13.93 19.1997 14.1647 19.7864 14.502C20.373 14.8393 20.8277 15.2867 21.1504 15.844C21.4877 16.3867 21.6564 17.0613 21.6564 17.868C21.6564 19.0853 21.0697 20.046 19.8964 20.75C20.8644 21.1167 21.5244 21.6153 21.8764 22.246C22.2284 22.8767 22.4044 23.588 22.4044 24.38C22.4044 25.9787 21.8177 27.1813 20.6444 27.988C19.4857 28.7947 17.755 29.198 15.4524 29.198ZM13.7144 22.356V26.294C13.9637 26.3233 14.235 26.3453 14.5284 26.36C14.8217 26.3747 15.1444 26.382 15.4964 26.382C16.523 26.382 17.3517 26.2353 17.9824 25.942C18.613 25.6487 18.9284 25.106 18.9284 24.314C18.9284 23.61 18.6644 23.1113 18.1364 22.818C17.6084 22.51 16.853 22.356 15.8704 22.356H13.7144ZM13.7144 19.738H15.3864C16.4424 19.738 17.1977 19.606 17.6524 19.342C18.107 19.0633 18.3344 18.6233 18.3344 18.022C18.3344 17.406 18.0997 16.9733 17.6304 16.724C17.161 16.4747 16.4717 16.35 15.5624 16.35C15.269 16.35 14.9537 16.3573 14.6164 16.372C14.279 16.372 13.9784 16.3867 13.7144 16.416V19.738ZM29.3536 26.712C29.6763 26.712 29.9843 26.7047 30.2776 26.69C30.5709 26.6753 30.8056 26.6533 30.9816 26.624V24.138C30.8496 24.1087 30.6516 24.0793 30.3876 24.05C30.1236 24.0207 29.8816 24.006 29.6616 24.006C29.3536 24.006 29.0603 24.028 28.7816 24.072C28.5176 24.1013 28.2829 24.1673 28.0776 24.27C27.8723 24.3727 27.7109 24.512 27.5936 24.688C27.4763 24.864 27.4176 25.084 27.4176 25.348C27.4176 25.8613 27.5863 26.2207 27.9236 26.426C28.2756 26.6167 28.7523 26.712 29.3536 26.712ZM29.0896 17.12C30.0576 17.12 30.8643 17.23 31.5096 17.45C32.1549 17.67 32.6683 17.9853 33.0496 18.396C33.4456 18.8067 33.7243 19.3053 33.8856 19.892C34.0469 20.4787 34.1276 21.1313 34.1276 21.85V28.67C33.6583 28.7727 33.0056 28.89 32.1696 29.022C31.3336 29.1687 30.3216 29.242 29.1336 29.242C28.3856 29.242 27.7036 29.176 27.0876 29.044C26.4863 28.912 25.9656 28.6993 25.5256 28.406C25.0856 28.098 24.7483 27.702 24.5136 27.218C24.2789 26.734 24.1616 26.14 24.1616 25.436C24.1616 24.7613 24.2936 24.1893 24.5576 23.72C24.8363 23.2507 25.2029 22.8767 25.6576 22.598C26.1123 22.3193 26.6329 22.1213 27.2196 22.004C27.8063 21.872 28.4149 21.806 29.0456 21.806C29.4709 21.806 29.8449 21.828 30.1676 21.872C30.5049 21.9013 30.7763 21.9453 30.9816 22.004V21.696C30.9816 21.1387 30.8129 20.6913 30.4756 20.354C30.1383 20.0167 29.5516 19.848 28.7156 19.848C28.1583 19.848 27.6083 19.892 27.0656 19.98C26.5229 20.0533 26.0536 20.1633 25.6576 20.31L25.2396 17.67C25.4303 17.6113 25.6649 17.5527 25.9436 17.494C26.2369 17.4207 26.5523 17.362 26.8896 17.318C27.2269 17.2593 27.5789 17.2153 27.9456 17.186C28.3269 17.142 28.7083 17.12 29.0896 17.12ZM36.5418 23.214C36.5418 22.378 36.6738 21.5933 36.9378 20.86C37.2164 20.112 37.6124 19.4667 38.1258 18.924C38.6391 18.3667 39.2624 17.9267 39.9958 17.604C40.7291 17.2813 41.5651 17.12 42.5038 17.12C43.1198 17.12 43.6844 17.1787 44.1978 17.296C44.7111 17.3987 45.2098 17.5527 45.6938 17.758L45.0118 20.376C44.7038 20.2587 44.3664 20.156 43.9998 20.068C43.6331 19.98 43.2224 19.936 42.7678 19.936C41.7998 19.936 41.0738 20.2367 40.5898 20.838C40.1204 21.4393 39.8858 22.2313 39.8858 23.214C39.8858 24.2553 40.1058 25.062 40.5458 25.634C41.0004 26.206 41.7851 26.492 42.8998 26.492C43.2958 26.492 43.7211 26.4553 44.1758 26.382C44.6304 26.3087 45.0484 26.1913 45.4298 26.03L45.8918 28.714C45.5104 28.8753 45.0338 29.0147 44.4618 29.132C43.8898 29.2493 43.2591 29.308 42.5698 29.308C41.5138 29.308 40.6044 29.154 39.8418 28.846C39.0791 28.5233 38.4484 28.0907 37.9498 27.548C37.4658 27.0053 37.1064 26.3673 36.8718 25.634C36.6518 24.886 36.5418 24.0793 36.5418 23.214ZM50.3272 23.126C50.3272 24.138 50.5545 24.952 51.0092 25.568C51.4638 26.184 52.1385 26.492 53.0332 26.492C53.3265 26.492 53.5978 26.4847 53.8472 26.47C54.0965 26.4407 54.3018 26.4113 54.4632 26.382V20.42C54.2578 20.288 53.9865 20.178 53.6492 20.09C53.3265 20.002 52.9965 19.958 52.6592 19.958C51.1045 19.958 50.3272 21.014 50.3272 23.126ZM57.7412 28.626C57.4478 28.714 57.1105 28.802 56.7292 28.89C56.3478 28.9633 55.9445 29.0293 55.5192 29.088C55.1085 29.1467 54.6832 29.1907 54.2432 29.22C53.8178 29.264 53.4072 29.286 53.0112 29.286C52.0578 29.286 51.2072 29.1467 50.4592 28.868C49.7112 28.5893 49.0805 28.1933 48.5672 27.68C48.0538 27.152 47.6578 26.5213 47.3792 25.788C47.1152 25.04 46.9832 24.204 46.9832 23.28C46.9832 22.3413 47.1005 21.498 47.3352 20.75C47.5698 19.9873 47.9072 19.342 48.3472 18.814C48.7872 18.286 49.3225 17.8827 49.9532 17.604C50.5985 17.3253 51.3318 17.186 52.1532 17.186C52.6078 17.186 53.0112 17.23 53.3632 17.318C53.7298 17.406 54.0965 17.5307 54.4632 17.692V12.456L57.7412 11.928V28.626ZM69.5005 19.628C69.2365 19.9213 68.8772 20.3173 68.4225 20.816C67.9825 21.3147 67.5058 21.8647 66.9925 22.466C66.4792 23.0673 65.9585 23.698 65.4305 24.358C64.9172 25.018 64.4478 25.656 64.0225 26.272H69.6105V29H60.0405V27.064C60.3485 26.536 60.7152 25.9713 61.1405 25.37C61.5805 24.754 62.0352 24.138 62.5045 23.522C62.9885 22.906 63.4652 22.312 63.9345 21.74C64.4038 21.1533 64.8365 20.6253 65.2325 20.156H60.3045V17.428H69.5005V19.628ZM82.3122 23.192C82.3122 24.1013 82.1802 24.9373 81.9162 25.7C81.6522 26.448 81.2709 27.0933 80.7722 27.636C80.2736 28.164 79.6722 28.5747 78.9682 28.868C78.2789 29.1613 77.5016 29.308 76.6362 29.308C75.7856 29.308 75.0082 29.1613 74.3042 28.868C73.6149 28.5747 73.0209 28.164 72.5222 27.636C72.0236 27.0933 71.6349 26.448 71.3562 25.7C71.0776 24.9373 70.9382 24.1013 70.9382 23.192C70.9382 22.2827 71.0776 21.454 71.3562 20.706C71.6496 19.958 72.0456 19.32 72.5442 18.792C73.0576 18.264 73.6589 17.8533 74.3482 17.56C75.0522 17.2667 75.8149 17.12 76.6362 17.12C77.4722 17.12 78.2349 17.2667 78.9242 17.56C79.6282 17.8533 80.2296 18.264 80.7282 18.792C81.2269 19.32 81.6156 19.958 81.8942 20.706C82.1729 21.454 82.3122 22.2827 82.3122 23.192ZM78.9682 23.192C78.9682 22.18 78.7629 21.388 78.3522 20.816C77.9562 20.2293 77.3842 19.936 76.6362 19.936C75.8882 19.936 75.3089 20.2293 74.8982 20.816C74.4876 21.388 74.2822 22.18 74.2822 23.192C74.2822 24.204 74.4876 25.0107 74.8982 25.612C75.3089 26.1987 75.8882 26.492 76.6362 26.492C77.3842 26.492 77.9562 26.1987 78.3522 25.612C78.7629 25.0107 78.9682 24.204 78.9682 23.192ZM84.8515 17.824C85.4089 17.6627 86.1275 17.516 87.0075 17.384C87.8875 17.2373 88.8115 17.164 89.7795 17.164C90.7622 17.164 91.5762 17.296 92.2215 17.56C92.8815 17.8093 93.4022 18.1687 93.7835 18.638C94.1649 19.1073 94.4362 19.6647 94.5975 20.31C94.7589 20.9553 94.8395 21.674 94.8395 22.466V29H91.5615V22.862C91.5615 21.806 91.4222 21.058 91.1435 20.618C90.8649 20.178 90.3442 19.958 89.5815 19.958C89.3469 19.958 89.0975 19.9727 88.8335 20.002C88.5695 20.0167 88.3349 20.0387 88.1295 20.068V29H84.8515V17.824ZM102.427 29.22C101.473 29.2053 100.696 29.1027 100.095 28.912C99.5079 28.7213 99.0386 28.4573 98.6866 28.12C98.3493 27.768 98.1146 27.35 97.9826 26.866C97.8653 26.3673 97.8066 25.81 97.8066 25.194V12.456L101.085 11.928V24.534C101.085 24.8273 101.107 25.0913 101.151 25.326C101.195 25.5607 101.275 25.7587 101.393 25.92C101.525 26.0813 101.708 26.2133 101.943 26.316C102.177 26.4187 102.493 26.4847 102.889 26.514L102.427 29.22ZM108.046 29H104.768V17.428H108.046V29ZM108.354 14.084C108.354 14.6853 108.156 15.162 107.76 15.514C107.378 15.8513 106.924 16.02 106.396 16.02C105.868 16.02 105.406 15.8513 105.01 15.514C104.628 15.162 104.438 14.6853 104.438 14.084C104.438 13.4827 104.628 13.0133 105.01 12.676C105.406 12.324 105.868 12.148 106.396 12.148C106.924 12.148 107.378 12.324 107.76 12.676C108.156 13.0133 108.354 13.4827 108.354 14.084ZM111.127 17.824C111.684 17.6627 112.403 17.516 113.283 17.384C114.163 17.2373 115.087 17.164 116.055 17.164C117.038 17.164 117.852 17.296 118.497 17.56C119.157 17.8093 119.678 18.1687 120.059 18.638C120.44 19.1073 120.712 19.6647 120.873 20.31C121.034 20.9553 121.115 21.674 121.115 22.466V29H117.837V22.862C117.837 21.806 117.698 21.058 117.419 20.618C117.14 20.178 116.62 19.958 115.857 19.958C115.622 19.958 115.373 19.9727 115.109 20.002C114.845 20.0167 114.61 20.0387 114.405 20.068V29H111.127V17.824ZM123.532 23.302C123.532 22.2753 123.686 21.3807 123.994 20.618C124.317 19.8407 124.735 19.1953 125.248 18.682C125.761 18.1687 126.348 17.78 127.008 17.516C127.683 17.252 128.372 17.12 129.076 17.12C130.719 17.12 132.017 17.626 132.97 18.638C133.923 19.6353 134.4 21.1093 134.4 23.06C134.4 23.2507 134.393 23.4633 134.378 23.698C134.363 23.918 134.349 24.116 134.334 24.292H126.898C126.971 24.9667 127.287 25.502 127.844 25.898C128.401 26.294 129.149 26.492 130.088 26.492C130.689 26.492 131.276 26.4407 131.848 26.338C132.435 26.2207 132.911 26.0813 133.278 25.92L133.718 28.582C133.542 28.67 133.307 28.758 133.014 28.846C132.721 28.934 132.391 29.0073 132.024 29.066C131.672 29.1393 131.291 29.198 130.88 29.242C130.469 29.286 130.059 29.308 129.648 29.308C128.607 29.308 127.697 29.154 126.92 28.846C126.157 28.538 125.519 28.12 125.006 27.592C124.507 27.0493 124.133 26.4113 123.884 25.678C123.649 24.9447 123.532 24.1527 123.532 23.302ZM131.232 22.048C131.217 21.7693 131.166 21.498 131.078 21.234C131.005 20.97 130.88 20.7353 130.704 20.53C130.543 20.3247 130.33 20.156 130.066 20.024C129.817 19.892 129.501 19.826 129.12 19.826C128.753 19.826 128.438 19.892 128.174 20.024C127.91 20.1413 127.69 20.3027 127.514 20.508C127.338 20.7133 127.199 20.9553 127.096 21.234C127.008 21.498 126.942 21.7693 126.898 22.048H131.232Z" fill="white"/>
<path d="M3.24139 38.0031C3.24139 37.4591 3.09739 37.0751 2.80939 36.8511C2.52939 36.6271 2.14539 36.5151 1.65739 36.5151C1.47339 36.5151 1.30939 36.5271 1.16539 36.5511C1.02939 36.5751 0.913391 36.5991 0.817391 36.6231L0.517391 35.2191C0.725391 35.1631 0.941391 35.1191 1.16539 35.0871C1.39739 35.0551 1.65739 35.0391 1.94539 35.0391C2.89739 35.0391 3.62939 35.2871 4.14139 35.7831C4.66139 36.2791 4.92139 36.9711 4.92139 37.8591V39.4551C5.03339 39.4871 5.17739 39.5191 5.35339 39.5511C5.52939 39.5831 5.70939 39.5991 5.89339 39.5991H6.01339V41.0871H5.59339C5.27339 41.0871 4.98539 41.0591 4.72939 41.0031C4.48139 40.9391 4.26539 40.8711 4.08139 40.7991C3.88139 40.8711 3.53739 40.9391 3.04939 41.0031C2.56939 41.0591 1.94139 41.0871 1.16539 41.0871H0.205391V39.5991H1.09339C1.36539 39.5991 1.62139 39.5951 1.86139 39.5871C2.10939 39.5711 2.32939 39.5551 2.52139 39.5391C2.71339 39.5231 2.86939 39.5071 2.98939 39.4911C3.11739 39.4751 3.20139 39.4631 3.24139 39.4551V38.0031ZM5.65789 39.5991H7.16989V37.7991C7.16989 37.2951 7.23389 36.8671 7.36189 36.5151C7.48989 36.1631 7.67389 35.8791 7.91389 35.6631C8.15389 35.4391 8.44189 35.2791 8.77789 35.1831C9.11389 35.0871 9.49389 35.0391 9.91789 35.0391C10.1739 35.0391 10.4419 35.0591 10.7219 35.0991C11.0019 35.1391 11.2219 35.1871 11.3819 35.2431L11.1539 36.6471C10.9619 36.6071 10.7739 36.5791 10.5899 36.5631C10.4139 36.5391 10.2459 36.5271 10.0859 36.5271C9.90189 36.5271 9.73389 36.5471 9.58189 36.5871C9.42989 36.6271 9.29789 36.6991 9.18589 36.8031C9.08189 36.8991 8.99789 37.0391 8.93389 37.2231C8.87789 37.3991 8.84989 37.6271 8.84989 37.9071V39.5991H11.8019V41.0871H5.65789V39.5991ZM14.219 40.7631C13.939 40.8431 13.587 40.9191 13.163 40.9911C12.747 41.0551 12.315 41.0871 11.867 41.0871H11.447V39.5991H11.567C11.751 39.5991 11.931 39.5831 12.107 39.5511C12.283 39.5191 12.427 39.4871 12.539 39.4551V35.2791L14.219 34.9671V40.7631ZM14.147 42.6711C14.147 42.9111 14.071 43.0991 13.919 43.2351C13.767 43.3791 13.587 43.4511 13.379 43.4511C13.171 43.4511 12.991 43.3791 12.839 43.2351C12.687 43.0991 12.611 42.9111 12.611 42.6711C12.611 42.4311 12.687 42.2391 12.839 42.0951C12.991 41.9591 13.171 41.8911 13.379 41.8911C13.587 41.8911 13.767 41.9591 13.919 42.0951C14.071 42.2391 14.147 42.4311 14.147 42.6711ZM24.7622 39.4551C24.8742 39.4871 25.0182 39.5191 25.1942 39.5511C25.3702 39.5831 25.5502 39.5991 25.7342 39.5991H25.8542V41.0871H25.5302C25.3942 41.0871 25.2582 41.0831 25.1222 41.0751C24.9862 41.0671 24.8502 41.0431 24.7142 41.0031C24.6022 41.7951 24.2782 42.4231 23.7422 42.8871C23.2142 43.3591 22.4862 43.5951 21.5582 43.5951C20.9902 43.5951 20.4942 43.5071 20.0702 43.3311C19.6542 43.1551 19.3062 42.9111 19.0262 42.5991C18.7462 42.2951 18.5342 41.9351 18.3902 41.5191C18.2542 41.1031 18.1862 40.6591 18.1862 40.1871C18.1862 39.8111 18.2262 39.4391 18.3062 39.0711C18.3862 38.6951 18.5182 38.3391 18.7022 38.0031L20.1662 38.4111C20.0542 38.6431 19.9662 38.9111 19.9022 39.2151C19.8462 39.5111 19.8182 39.8151 19.8182 40.1271C19.8182 40.4071 19.8462 40.6711 19.9022 40.9191C19.9582 41.1671 20.0502 41.3791 20.1782 41.5551C20.3142 41.7391 20.4942 41.8831 20.7182 41.9871C20.9502 42.0911 21.2422 42.1431 21.5942 42.1431C21.7862 42.1431 21.9702 42.1151 22.1462 42.0591C22.3302 42.0031 22.4902 41.9031 22.6262 41.7591C22.7622 41.6231 22.8702 41.4431 22.9502 41.2191C23.0382 40.9951 23.0822 40.7151 23.0822 40.3791V35.2791L24.7622 34.9671V39.4551ZM22.2422 35.8071C22.2422 36.0471 22.1662 36.2391 22.0142 36.3831C21.8622 36.5191 21.6822 36.5871 21.4742 36.5871C21.2662 36.5871 21.0862 36.5191 20.9342 36.3831C20.7822 36.2391 20.7062 36.0471 20.7062 35.8071C20.7062 35.5671 20.7822 35.3791 20.9342 35.2431C21.0862 35.0991 21.2662 35.0271 21.4742 35.0271C21.6822 35.0271 21.8622 35.0991 22.0142 35.2431C22.1662 35.3791 22.2422 35.5671 22.2422 35.8071ZM25.4977 39.5991H27.0097V37.7991C27.0097 37.2951 27.0737 36.8671 27.2017 36.5151C27.3297 36.1631 27.5137 35.8791 27.7537 35.6631C27.9937 35.4391 28.2817 35.2791 28.6177 35.1831C28.9537 35.0871 29.3337 35.0391 29.7577 35.0391C30.0137 35.0391 30.2817 35.0591 30.5617 35.0991C30.8417 35.1391 31.0617 35.1871 31.2217 35.2431L30.9937 36.6471C30.8017 36.6071 30.6137 36.5791 30.4297 36.5631C30.2537 36.5391 30.0857 36.5271 29.9257 36.5271C29.7417 36.5271 29.5737 36.5471 29.4217 36.5871C29.2697 36.6271 29.1377 36.6991 29.0257 36.8031C28.9217 36.8991 28.8377 37.0391 28.7737 37.2231C28.7177 37.3991 28.6897 37.6271 28.6897 37.9071V39.5991H31.1257V41.0871H25.4977V39.5991ZM38.7762 36.6111C38.6722 36.5951 38.5402 36.5791 38.3802 36.5631C38.2202 36.5391 38.0642 36.5271 37.9122 36.5271C37.4802 36.5271 37.1522 36.6711 36.9282 36.9591C36.7042 37.2471 36.5922 37.6791 36.5922 38.2551C36.5922 38.7671 36.6922 39.1431 36.8922 39.3831C37.0922 39.6231 37.3802 39.7431 37.7562 39.7431C37.9402 39.7431 38.1242 39.7111 38.3082 39.6471C38.5002 39.5831 38.6762 39.4951 38.8362 39.3831C38.8122 39.2631 38.7962 39.1591 38.7882 39.0711C38.7802 38.9831 38.7762 38.8911 38.7762 38.7951V36.6111ZM40.4562 38.6871C40.4562 39.0471 40.5002 39.2911 40.5882 39.4191C40.6762 39.5391 40.8162 39.5991 41.0082 39.5991H41.6562V41.0871H40.9962C40.6522 41.0871 40.3522 41.0511 40.0962 40.9791C39.8482 40.9071 39.6522 40.7791 39.5082 40.5951C39.2842 40.7711 39.0322 40.9231 38.7522 41.0511C38.4802 41.1711 38.1282 41.2311 37.6962 41.2311C37.2162 41.2311 36.7962 41.1591 36.4362 41.0151C36.0842 40.8711 35.7882 40.6711 35.5482 40.4151C35.3162 40.1511 35.1442 39.8431 35.0322 39.4911C34.9202 39.1311 34.8642 38.7351 34.8642 38.3031C34.8642 37.8071 34.9282 37.3591 35.0562 36.9591C35.1922 36.5591 35.3882 36.2191 35.6442 35.9391C35.9002 35.6511 36.2202 35.4311 36.6042 35.2791C36.9882 35.1191 37.4282 35.0391 37.9242 35.0391C38.5002 35.0391 39.0002 35.0831 39.4242 35.1711C39.8562 35.2511 40.2002 35.3271 40.4562 35.3991V38.6871ZM39.3642 33.4551C39.3642 33.6871 39.2922 33.8711 39.1482 34.0071C39.0122 34.1351 38.8442 34.1991 38.6442 34.1991C38.4442 34.1991 38.2722 34.1351 38.1282 34.0071C37.9842 33.8711 37.9122 33.6871 37.9122 33.4551C37.9122 33.2311 37.9842 33.0551 38.1282 32.9271C38.2722 32.7911 38.4442 32.7231 38.6442 32.7231C38.8442 32.7231 39.0122 32.7911 39.1482 32.9271C39.2922 33.0551 39.3642 33.2311 39.3642 33.4551ZM37.6722 33.4551C37.6722 33.6871 37.6002 33.8711 37.4562 34.0071C37.3202 34.1351 37.1522 34.1991 36.9522 34.1991C36.7522 34.1991 36.5802 34.1351 36.4362 34.0071C36.2922 33.8711 36.2202 33.6871 36.2202 33.4551C36.2202 33.2311 36.2922 33.0551 36.4362 32.9271C36.5802 32.7911 36.7522 32.7231 36.9522 32.7231C37.1522 32.7231 37.3202 32.7911 37.4562 32.9271C37.6002 33.0551 37.6722 33.2311 37.6722 33.4551ZM44.8106 41.0871C44.4746 41.0871 44.1746 41.0631 43.9106 41.0151C43.6546 40.9591 43.4266 40.8871 43.2266 40.7991C43.0186 40.8871 42.7826 40.9591 42.5186 41.0151C42.2626 41.0631 41.9946 41.0871 41.7146 41.0871H41.2946V39.5991H41.4986C41.6826 39.5991 41.8506 39.5911 42.0026 39.5751C42.1626 39.5511 42.2906 39.5271 42.3866 39.5031V35.3511L44.0666 35.0391V39.5031C44.2586 39.5671 44.5106 39.5991 44.8226 39.5991C45.1346 39.5991 45.3866 39.5671 45.5786 39.5031V35.3511L47.2586 35.0391V39.5031C47.4506 39.5671 47.7026 39.5991 48.0146 39.5991C48.3266 39.5991 48.5786 39.5671 48.7706 39.5031V35.3511L50.4506 35.0391V40.7271C50.2506 40.8071 49.9386 40.8871 49.5146 40.9671C49.0906 41.0471 48.5906 41.0871 48.0146 41.0871C47.7106 41.0871 47.4186 41.0631 47.1386 41.0151C46.8586 40.9591 46.6186 40.8871 46.4186 40.7991C46.2346 40.8871 45.9986 40.9591 45.7106 41.0151C45.4306 41.0631 45.1306 41.0871 44.8106 41.0871ZM51.886 41.0871V32.0871L53.566 31.7751V41.0871H51.886ZM53.2258 42.0351C53.4098 42.0671 53.5978 42.0951 53.7898 42.1191C53.9818 42.1431 54.1658 42.1551 54.3418 42.1551C54.5098 42.1551 54.6618 42.1351 54.7978 42.0951C54.9418 42.0631 55.0658 41.9991 55.1698 41.9031C55.2818 41.8151 55.3658 41.6911 55.4218 41.5311C55.4858 41.3711 55.5178 41.1631 55.5178 40.9071V35.2791L57.1978 34.9671V40.8711C57.1978 41.4071 57.1178 41.8511 56.9578 42.2031C56.7978 42.5551 56.5858 42.8311 56.3218 43.0311C56.0658 43.2391 55.7738 43.3831 55.4458 43.4631C55.1258 43.5511 54.8018 43.5951 54.4738 43.5951C54.2178 43.5951 53.9658 43.5791 53.7178 43.5471C53.4778 43.5151 53.2418 43.4711 53.0098 43.4151L53.2258 42.0351ZM61.0734 38.0031C61.0734 37.4591 60.9294 37.0751 60.6414 36.8511C60.3614 36.6271 59.9774 36.5151 59.4894 36.5151C59.3054 36.5151 59.1414 36.5271 58.9974 36.5511C58.8614 36.5751 58.7454 36.5991 58.6494 36.6231L58.3494 35.2191C58.5574 35.1631 58.7734 35.1191 58.9974 35.0871C59.2294 35.0551 59.4894 35.0391 59.7774 35.0391C60.7294 35.0391 61.4614 35.2871 61.9734 35.7831C62.4934 36.2791 62.7534 36.9711 62.7534 37.8591V39.4551C62.8654 39.4871 63.0094 39.5191 63.1854 39.5511C63.3614 39.5831 63.5414 39.5991 63.7254 39.5991H63.8454V41.0871H63.4254C63.1054 41.0871 62.8174 41.0591 62.5614 41.0031C62.3134 40.9391 62.0974 40.8711 61.9134 40.7991C61.7134 40.8711 61.3694 40.9391 60.8814 41.0031C60.4014 41.0591 59.7734 41.0871 58.9974 41.0871H58.0374V39.5991H58.9254C59.1974 39.5991 59.4534 39.5951 59.6934 39.5871C59.9414 39.5711 60.1614 39.5551 60.3534 39.5391C60.5454 39.5231 60.7014 39.5071 60.8214 39.4911C60.9494 39.4751 61.0334 39.4631 61.0734 39.4551V38.0031ZM64.5819 32.0871L66.2619 31.7751V39.4551C66.3739 39.4871 66.5179 39.5191 66.6939 39.5511C66.8699 39.5831 67.0499 39.5991 67.2339 39.5991H67.3539V41.0871H66.9339C66.6139 41.0871 66.3259 41.0591 66.0699 41.0031C65.8219 40.9391 65.6059 40.8711 65.4219 40.7991C65.2539 40.8711 65.0299 40.9391 64.7499 41.0031C64.4699 41.0591 64.1899 41.0871 63.9099 41.0871H63.4899V39.5991H63.6099C63.7939 39.5991 63.9739 39.5831 64.1499 39.5511C64.3259 39.5191 64.4699 39.4871 64.5819 39.4551V32.0871ZM69.7658 40.7631C69.4858 40.8431 69.1338 40.9191 68.7098 40.9911C68.2938 41.0551 67.8618 41.0871 67.4138 41.0871H66.9938V39.5991H67.1138C67.2978 39.5991 67.4778 39.5831 67.6538 39.5511C67.8298 39.5191 67.9738 39.4871 68.0858 39.4551V32.0871L69.7658 31.7751V40.7631ZM77.741 36.6111C77.637 36.5951 77.505 36.5791 77.345 36.5631C77.185 36.5391 77.029 36.5271 76.877 36.5271C76.445 36.5271 76.117 36.6711 75.893 36.9591C75.669 37.2471 75.557 37.6791 75.557 38.2551C75.557 38.7671 75.657 39.1431 75.857 39.3831C76.057 39.6231 76.345 39.7431 76.721 39.7431C76.905 39.7431 77.089 39.7111 77.273 39.6471C77.465 39.5831 77.641 39.4951 77.801 39.3831C77.777 39.2631 77.761 39.1591 77.753 39.0711C77.745 38.9831 77.741 38.8911 77.741 38.7951V36.6111ZM79.421 38.6871C79.421 39.0471 79.465 39.2911 79.553 39.4191C79.641 39.5391 79.781 39.5991 79.973 39.5991H80.621V41.0871H79.961C79.617 41.0871 79.317 41.0511 79.061 40.9791C78.813 40.9071 78.617 40.7791 78.473 40.5951C78.249 40.7711 77.997 40.9231 77.717 41.0511C77.445 41.1711 77.093 41.2311 76.661 41.2311C76.181 41.2311 75.761 41.1591 75.401 41.0151C75.049 40.8711 74.753 40.6711 74.513 40.4151C74.281 40.1511 74.109 39.8431 73.997 39.4911C73.885 39.1311 73.829 38.7351 73.829 38.3031C73.829 37.8071 73.893 37.3591 74.021 36.9591C74.157 36.5591 74.353 36.2191 74.609 35.9391C74.865 35.6511 75.185 35.4311 75.569 35.2791C75.953 35.1191 76.393 35.0391 76.889 35.0391C77.465 35.0391 77.965 35.0831 78.389 35.1711C78.821 35.2511 79.165 35.3271 79.421 35.3991V38.6871ZM78.329 33.4551C78.329 33.6871 78.257 33.8711 78.113 34.0071C77.977 34.1351 77.809 34.1991 77.609 34.1991C77.409 34.1991 77.237 34.1351 77.093 34.0071C76.949 33.8711 76.877 33.6871 76.877 33.4551C76.877 33.2311 76.949 33.0551 77.093 32.9271C77.237 32.7911 77.409 32.7231 77.609 32.7231C77.809 32.7231 77.977 32.7911 78.113 32.9271C78.257 33.0551 78.329 33.2311 78.329 33.4551ZM76.637 33.4551C76.637 33.6871 76.565 33.8711 76.421 34.0071C76.285 34.1351 76.117 34.1991 75.917 34.1991C75.717 34.1991 75.545 34.1351 75.401 34.0071C75.257 33.8711 75.185 33.6871 75.185 33.4551C75.185 33.2311 75.257 33.0551 75.401 32.9271C75.545 32.7911 75.717 32.7231 75.917 32.7231C76.117 32.7231 76.285 32.7911 76.421 32.9271C76.565 33.0551 76.637 33.2311 76.637 33.4551ZM81.3515 35.2791L83.0315 34.9671V39.4551C83.1435 39.4871 83.2875 39.5191 83.4635 39.5511C83.6395 39.5831 83.8195 39.5991 84.0035 39.5991H84.1235V41.0871H83.7035C83.3835 41.0871 83.0955 41.0591 82.8395 41.0031C82.5915 40.9391 82.3755 40.8711 82.1915 40.7991C82.0235 40.8711 81.7995 40.9391 81.5195 41.0031C81.2395 41.0591 80.9595 41.0871 80.6795 41.0871H80.2595V39.5991H80.3795C80.5635 39.5991 80.7435 39.5831 80.9195 39.5511C81.0955 39.5191 81.2395 39.4871 81.3515 39.4551V35.2791ZM83.7635 42.6231C83.7635 42.8551 83.6915 43.0351 83.5475 43.1631C83.4115 43.2991 83.2435 43.3671 83.0435 43.3671C82.8435 43.3671 82.6715 43.2991 82.5275 43.1631C82.3835 43.0351 82.3115 42.8551 82.3115 42.6231C82.3115 42.3991 82.3835 42.2191 82.5275 42.0831C82.6715 41.9551 82.8435 41.8911 83.0435 41.8911C83.2435 41.8911 83.4115 41.9551 83.5475 42.0831C83.6915 42.2191 83.7635 42.3991 83.7635 42.6231ZM82.0715 42.6231C82.0715 42.8551 81.9995 43.0351 81.8555 43.1631C81.7195 43.2991 81.5515 43.3671 81.3515 43.3671C81.1515 43.3671 80.9795 43.2991 80.8355 43.1631C80.6915 43.0351 80.6195 42.8551 80.6195 42.6231C80.6195 42.3991 80.6915 42.2191 80.8355 42.0831C80.9795 41.9551 81.1515 41.8911 81.3515 41.8911C81.5515 41.8911 81.7195 41.9551 81.8555 42.0831C81.9995 42.2191 82.0715 42.3991 82.0715 42.6231ZM87.5794 35.0391C88.0594 35.0391 88.4794 35.1151 88.8394 35.2671C89.1994 35.4191 89.4994 35.6231 89.7394 35.8791C89.9874 36.1351 90.1714 36.4351 90.2914 36.7791C90.4114 37.1231 90.4714 37.4911 90.4714 37.8831C90.4714 38.1871 90.4434 38.4831 90.3874 38.7711C90.3394 39.0511 90.2474 39.3111 90.1114 39.5511C90.2234 39.5751 90.3434 39.5911 90.4714 39.5991C90.5994 39.5991 90.7674 39.5991 90.9754 39.5991H91.3474V41.0871H90.5434C90.2474 41.0871 89.9634 41.0631 89.6914 41.0151C89.4274 40.9591 89.1954 40.8871 88.9954 40.7991C88.7234 40.9111 88.4474 40.9871 88.1674 41.0271C87.8954 41.0671 87.6314 41.0871 87.3754 41.0871C86.9994 41.0871 86.6714 41.0671 86.3914 41.0271C86.1194 40.9871 85.8394 40.9111 85.5514 40.7991C85.4314 40.8551 85.2354 40.9191 84.9634 40.9911C84.6914 41.0551 84.4074 41.0871 84.1114 41.0871H83.7634V39.5991H83.9074C83.9714 39.5991 84.0514 39.5951 84.1474 39.5871C84.2434 39.5791 84.3354 39.5671 84.4234 39.5511C84.5274 39.5351 84.6354 39.5191 84.7474 39.5031V37.6911C84.7474 37.2671 84.8154 36.8911 84.9514 36.5631C85.0954 36.2271 85.2914 35.9471 85.5394 35.7231C85.7954 35.4991 86.0954 35.3311 86.4394 35.2191C86.7834 35.0991 87.1634 35.0391 87.5794 35.0391ZM86.4274 39.4791C86.6194 39.5271 86.8034 39.5591 86.9794 39.5751C87.1554 39.5911 87.3234 39.5991 87.4834 39.5991C87.9314 39.5991 88.2594 39.4551 88.4674 39.1671C88.6834 38.8711 88.7914 38.4951 88.7914 38.0391C88.7914 37.5991 88.6914 37.2391 88.4914 36.9591C88.2994 36.6711 88.0114 36.5271 87.6274 36.5271C87.2674 36.5271 86.9754 36.6431 86.7514 36.8751C86.5354 37.0991 86.4274 37.4391 86.4274 37.8951V39.4791ZM90.9821 41.0871V39.5991H92.2541C92.1341 39.3911 92.0421 39.1591 91.9781 38.9031C91.9141 38.6391 91.8821 38.3831 91.8821 38.1351C91.8821 37.6231 91.9501 37.1751 92.0861 36.7911C92.2301 36.4071 92.4301 36.0871 92.6861 35.8311C92.9501 35.5671 93.2621 35.3711 93.6221 35.2431C93.9901 35.1071 94.3981 35.0391 94.8461 35.0391C95.4221 35.0391 95.9221 35.0831 96.3461 35.1711C96.7781 35.2511 97.1221 35.3271 97.3781 35.3991V41.0871H90.9821ZM95.6981 39.5991V36.6111C95.5141 36.5791 95.3541 36.5591 95.2181 36.5511C95.0821 36.5351 94.9581 36.5271 94.8461 36.5271C94.3901 36.5271 94.0621 36.6671 93.8621 36.9471C93.6701 37.2191 93.5741 37.6111 93.5741 38.1231C93.5741 38.3391 93.5901 38.5391 93.6221 38.7231C93.6621 38.8991 93.7261 39.0551 93.8141 39.1911C93.9101 39.3191 94.0301 39.4191 94.1741 39.4911C94.3261 39.5631 94.5141 39.5991 94.7381 39.5991H95.6981ZM96.5141 33.4551C96.5141 33.6871 96.4421 33.8711 96.2981 34.0071C96.1621 34.1351 95.9941 34.1991 95.7941 34.1991C95.5941 34.1991 95.4221 34.1351 95.2781 34.0071C95.1341 33.8711 95.0621 33.6871 95.0621 33.4551C95.0621 33.2311 95.1341 33.0551 95.2781 32.9271C95.4221 32.7911 95.5941 32.7231 95.7941 32.7231C95.9941 32.7231 96.1621 32.7911 96.2981 32.9271C96.4421 33.0551 96.5141 33.2311 96.5141 33.4551ZM94.8221 33.4551C94.8221 33.6871 94.7501 33.8711 94.6061 34.0071C94.4701 34.1351 94.3021 34.1991 94.1021 34.1991C93.9021 34.1991 93.7301 34.1351 93.5861 34.0071C93.4421 33.8711 93.3701 33.6871 93.3701 33.4551C93.3701 33.2311 93.4421 33.0551 93.5861 32.9271C93.7301 32.7911 93.9021 32.7231 94.1021 32.7231C94.3021 32.7231 94.4701 32.7911 94.6061 32.9271C94.7501 33.0551 94.8221 33.2311 94.8221 33.4551ZM97.2883 42.0351C97.4723 42.0671 97.6603 42.0951 97.8523 42.1191C98.0443 42.1431 98.2283 42.1551 98.4043 42.1551C98.5723 42.1551 98.7243 42.1351 98.8603 42.0951C99.0043 42.0631 99.1283 41.9991 99.2323 41.9031C99.3443 41.8151 99.4283 41.6911 99.4843 41.5311C99.5483 41.3711 99.5803 41.1631 99.5803 40.9071V35.2791L101.26 34.9671V39.4551C101.372 39.4871 101.516 39.5191 101.692 39.5511C101.868 39.5831 102.048 39.5991 102.232 39.5991H102.352V41.0871H102.052C101.916 41.0871 101.78 41.0831 101.644 41.0751C101.516 41.0671 101.388 41.0511 101.26 41.0271C101.244 41.5311 101.152 41.9471 100.984 42.2751C100.824 42.6111 100.616 42.8751 100.36 43.0671C100.104 43.2591 99.8163 43.3951 99.4963 43.4751C99.1763 43.5551 98.8563 43.5951 98.5363 43.5951C98.2803 43.5951 98.0283 43.5791 97.7803 43.5471C97.5403 43.5151 97.3043 43.4711 97.0723 43.4151L97.2883 42.0351ZM104.77 40.7631C104.49 40.8431 104.138 40.9191 103.714 40.9911C103.298 41.0551 102.866 41.0871 102.418 41.0871H101.998V39.5991H102.118C102.302 39.5991 102.482 39.5831 102.658 39.5511C102.834 39.5191 102.978 39.4871 103.09 39.4551V32.0871L104.77 31.7751V40.7631ZM106.214 41.0871V32.0871L107.894 31.7751V41.0871H106.214ZM115.862 36.6111C115.758 36.5951 115.626 36.5791 115.466 36.5631C115.306 36.5391 115.15 36.5271 114.998 36.5271C114.566 36.5271 114.238 36.6711 114.014 36.9591C113.79 37.2471 113.678 37.6791 113.678 38.2551C113.678 38.7671 113.778 39.1431 113.978 39.3831C114.178 39.6231 114.466 39.7431 114.842 39.7431C115.026 39.7431 115.21 39.7111 115.394 39.6471C115.586 39.5831 115.762 39.4951 115.922 39.3831C115.898 39.2631 115.882 39.1591 115.874 39.0711C115.866 38.9831 115.862 38.8911 115.862 38.7951V36.6111ZM117.542 38.6871C117.542 39.0471 117.586 39.2911 117.674 39.4191C117.762 39.5391 117.902 39.5991 118.094 39.5991H118.742V41.0871H118.082C117.738 41.0871 117.438 41.0511 117.182 40.9791C116.934 40.9071 116.738 40.7791 116.594 40.5951C116.37 40.7711 116.118 40.9231 115.838 41.0511C115.566 41.1711 115.214 41.2311 114.782 41.2311C114.302 41.2311 113.882 41.1591 113.522 41.0151C113.17 40.8711 112.874 40.6711 112.634 40.4151C112.402 40.1511 112.23 39.8431 112.118 39.4911C112.006 39.1311 111.95 38.7351 111.95 38.3031C111.95 37.8071 112.014 37.3591 112.142 36.9591C112.278 36.5591 112.474 36.2191 112.73 35.9391C112.986 35.6511 113.306 35.4311 113.69 35.2791C114.074 35.1191 114.514 35.0391 115.01 35.0391C115.586 35.0391 116.086 35.0831 116.51 35.1711C116.942 35.2511 117.286 35.3271 117.542 35.3991V38.6871ZM116.45 33.4551C116.45 33.6871 116.378 33.8711 116.234 34.0071C116.098 34.1351 115.93 34.1991 115.73 34.1991C115.53 34.1991 115.358 34.1351 115.214 34.0071C115.07 33.8711 114.998 33.6871 114.998 33.4551C114.998 33.2311 115.07 33.0551 115.214 32.9271C115.358 32.7911 115.53 32.7231 115.73 32.7231C115.93 32.7231 116.098 32.7911 116.234 32.9271C116.378 33.0551 116.45 33.2311 116.45 33.4551ZM114.758 33.4551C114.758 33.6871 114.686 33.8711 114.542 34.0071C114.406 34.1351 114.238 34.1991 114.038 34.1991C113.838 34.1991 113.666 34.1351 113.522 34.0071C113.378 33.8711 113.306 33.6871 113.306 33.4551C113.306 33.2311 113.378 33.0551 113.522 32.9271C113.666 32.7911 113.838 32.7231 114.038 32.7231C114.238 32.7231 114.406 32.7911 114.542 32.9271C114.686 33.0551 114.758 33.2311 114.758 33.4551ZM118.381 39.5991H119.473V35.3511L121.153 35.0391V36.2391C121.505 35.8711 121.921 35.5791 122.401 35.3631C122.889 35.1471 123.441 35.0391 124.057 35.0391C124.929 35.0391 125.621 35.3031 126.133 35.8311C126.645 36.3591 126.901 37.1431 126.901 38.1831V39.4551C127.013 39.4871 127.157 39.5191 127.333 39.5511C127.509 39.5831 127.689 39.5991 127.873 39.5991H127.993V41.0871H127.573C127.253 41.0871 126.965 41.0591 126.709 41.0031C126.461 40.9391 126.245 40.8711 126.061 40.7991C125.925 40.8311 125.757 40.8671 125.557 40.9071C125.357 40.9391 125.101 40.9711 124.789 41.0031C124.477 41.0271 124.097 41.0471 123.649 41.0631C123.209 41.0791 122.681 41.0871 122.065 41.0871H118.381V39.5991ZM125.221 38.5911C125.221 37.8471 125.089 37.3191 124.825 37.0071C124.561 36.6871 124.185 36.5271 123.697 36.5271C123.409 36.5271 123.125 36.5791 122.845 36.6831C122.565 36.7791 122.309 36.9031 122.077 37.0551C121.853 37.2071 121.657 37.3671 121.489 37.5351C121.329 37.7031 121.217 37.8551 121.153 37.9911V39.5991H122.473C122.745 39.5991 123.033 39.5951 123.337 39.5871C123.649 39.5711 123.937 39.5551 124.201 39.5391C124.465 39.5231 124.689 39.5071 124.873 39.4911C125.065 39.4751 125.181 39.4631 125.221 39.4551V38.5911ZM128.73 35.2791L130.41 34.9671V39.4551C130.522 39.4871 130.666 39.5191 130.842 39.5511C131.018 39.5831 131.198 39.5991 131.382 39.5991H131.502V41.0871H131.082C130.762 41.0871 130.474 41.0591 130.218 41.0031C129.97 40.9391 129.754 40.8711 129.57 40.7991C129.402 40.8711 129.178 40.9391 128.898 41.0031C128.618 41.0591 128.338 41.0871 128.058 41.0871H127.638V39.5991H127.758C127.942 39.5991 128.122 39.5831 128.298 39.5511C128.474 39.5191 128.618 39.4871 128.73 39.4551V35.2791ZM130.338 33.4191C130.338 33.6591 130.262 33.8511 130.11 33.9951C129.958 34.1311 129.778 34.1991 129.57 34.1991C129.362 34.1991 129.182 34.1311 129.03 33.9951C128.878 33.8511 128.802 33.6591 128.802 33.4191C128.802 33.1791 128.878 32.9911 129.03 32.8551C129.182 32.7111 129.362 32.6391 129.57 32.6391C129.778 32.6391 129.958 32.7111 130.11 32.8551C130.262 32.9911 130.338 33.1791 130.338 33.4191ZM134.958 35.0391C135.438 35.0391 135.858 35.1151 136.218 35.2671C136.578 35.4191 136.878 35.6231 137.118 35.8791C137.366 36.1351 137.55 36.4351 137.67 36.7791C137.79 37.1231 137.85 37.4911 137.85 37.8831C137.85 38.1871 137.822 38.4831 137.766 38.7711C137.718 39.0511 137.626 39.3111 137.49 39.5511C137.602 39.5751 137.722 39.5911 137.85 39.5991C137.978 39.5991 138.146 39.5991 138.354 39.5991H138.726V41.0871H137.922C137.626 41.0871 137.342 41.0631 137.07 41.0151C136.806 40.9591 136.574 40.8871 136.374 40.7991C136.102 40.9111 135.826 40.9871 135.546 41.0271C135.274 41.0671 135.01 41.0871 134.754 41.0871C134.378 41.0871 134.05 41.0671 133.77 41.0271C133.498 40.9871 133.218 40.9111 132.93 40.7991C132.81 40.8551 132.614 40.9191 132.342 40.9911C132.07 41.0551 131.786 41.0871 131.49 41.0871H131.142V39.5991H131.286C131.35 39.5991 131.43 39.5951 131.526 39.5871C131.622 39.5791 131.714 39.5671 131.802 39.5511C131.906 39.5351 132.014 39.5191 132.126 39.5031V37.6911C132.126 37.2671 132.194 36.8911 132.33 36.5631C132.474 36.2271 132.67 35.9471 132.918 35.7231C133.174 35.4991 133.474 35.3311 133.818 35.2191C134.162 35.0991 134.542 35.0391 134.958 35.0391ZM133.806 39.4791C133.998 39.5271 134.182 39.5591 134.358 39.5751C134.534 39.5911 134.702 39.5991 134.862 39.5991C135.31 39.5991 135.638 39.4551 135.846 39.1671C136.062 38.8711 136.17 38.4951 136.17 38.0391C136.17 37.5991 136.07 37.2391 135.87 36.9591C135.678 36.6711 135.39 36.5271 135.006 36.5271C134.646 36.5271 134.354 36.6431 134.13 36.8751C133.914 37.0991 133.806 37.4391 133.806 37.8951V39.4791ZM141.133 40.7631C140.853 40.8431 140.501 40.9191 140.077 40.9911C139.661 41.0551 139.229 41.0871 138.781 41.0871H138.361V39.5991H138.481C138.665 39.5991 138.845 39.5831 139.021 39.5511C139.197 39.5191 139.341 39.4871 139.453 39.4551V32.0871L141.133 31.7751V40.7631ZM142.577 41.0871V32.0871L144.257 31.7751V41.0871H142.577Z" fill="white"/>
</svg>
