<svg width="157" height="149" viewBox="0 0 157 149" fill="none" xmlns="http://www.w3.org/2000/svg">
<mask id="mask0_843_420" style="mask-type:luminance" maskUnits="userSpaceOnUse" x="0" y="0" width="157" height="149">
<path d="M78.4455 0C35.1303 0 0 33.245 0 74.2355C0 115.226 35.1303 148.471 78.4455 148.471C121.761 148.471 156.891 115.226 156.891 74.2355C156.891 33.245 121.761 0 78.4455 0Z" fill="white"/>
</mask>
<g mask="url(#mask0_843_420)">
<path d="M102.434 55.6402C102.434 68.3174 91.5827 78.5578 78.2172 78.5578C64.8518 78.5578 54 68.2884 54 55.6402C54 42.992 64.8518 32.7227 78.2172 32.7227C91.5827 32.7227 102.434 42.992 102.434 55.6402Z" fill="#9274B8"/>
<path d="M138.406 145.106C138.406 176.436 111.553 201.848 78.4454 201.848C45.3383 201.848 18.4541 176.465 18.4541 145.106C18.4541 113.746 45.3077 88.3628 78.4454 88.3628C111.583 88.3628 138.406 113.775 138.406 145.106Z" fill="#9274B8"/>
</g>
</svg>
