<svg width="16" height="22" viewBox="0 0 16 22" fill="none" xmlns="http://www.w3.org/2000/svg">
<path d="M10.275 18.05L11.795 19.57L14.835 16.53M7.825 20.81C6.005 20.81 4.195 20.35 2.815 19.43C0.395 17.81 0.395 15.17 2.815 13.56C5.565 11.72 10.075 11.72 12.825 13.56M7.995 9.87C7.895 9.86 7.775 9.86 7.665 9.87C6.5172 9.83103 5.42964 9.34684 4.63263 8.51996C3.83562 7.69308 3.39174 6.58845 3.395 5.44C3.39342 4.85733 3.50686 4.28008 3.7288 3.74133C3.95075 3.20258 4.27684 2.71294 4.68839 2.30046C5.09993 1.88799 5.58884 1.56079 6.12709 1.33763C6.66533 1.11447 7.24233 0.999735 7.825 1C10.275 1 12.265 2.99 12.265 5.44C12.265 7.84 10.365 9.79 7.995 9.87Z" stroke="#45166A" stroke-width="1.5" stroke-linecap="round" stroke-linejoin="round"/>
</svg>
